<svg width="56" height="56" viewBox="0 0 56 56" fill="none" xmlns="http://www.w3.org/2000/svg">
<rect width="56" height="56" rx="28" fill="#0B0B0B"/>
<path d="M36.8022 18.2153L28.0937 25.0116L19.186 18.2153V18.2172L19.1968 18.2264V27.7429L27.9932 34.6861L36.8022 28.0111V18.2153Z" fill="#D6A652"/>
<path d="M39.0888 16.562L36.8018 18.2152V28.0109L43.9982 22.4858V19.1574C43.9982 19.1574 43.1246 14.4037 39.0888 16.562Z" fill="#D6A652"/>
<path d="M36.8018 28.011V40.7163H42.3175C42.3175 40.7163 43.887 40.5547 44 38.7656V22.4858L36.8018 28.011Z" fill="#D6A652"/>
<path d="M19.1958 40.7276V27.7431L19.186 27.7339L19.1958 40.7276Z" fill="#D6A652"/>
<path d="M19.1857 18.2169L16.9112 16.5729C12.8753 14.4147 12 19.1665 12 19.1665V22.4948L19.1857 27.7335V18.2169Z" fill="#D6A652"/>
<path d="M19.186 18.2173V27.7339L19.1958 27.7431V18.2265L19.186 18.2173Z" fill="#D6A652"/>
<path d="M12 22.4971V38.7768C12.1112 40.5677 13.6825 40.7275 13.6825 40.7275H19.1982L19.1857 27.7339L12 22.4971Z" fill="#D6A652"/>
</svg>
