<svg width="57" height="56" viewBox="0 0 57 56" fill="none" xmlns="http://www.w3.org/2000/svg">
<rect x="0.5" width="56" height="56" rx="28" fill="#0B0B0B"/>
<path d="M38.3 20.3C38.3 21.4598 37.3598 22.4 36.2 22.4C35.0402 22.4 34.1 21.4598 34.1 20.3C34.1 19.1402 35.0402 18.2 36.2 18.2C37.3598 18.2 38.3 19.1402 38.3 20.3Z" fill="#D6A652"/>
<path fill-rule="evenodd" clip-rule="evenodd" d="M28.5 35C32.366 35 35.5 31.866 35.5 28C35.5 24.134 32.366 21 28.5 21C24.634 21 21.5 24.134 21.5 28C21.5 31.866 24.634 35 28.5 35ZM28.5 32.2C30.8196 32.2 32.7 30.3196 32.7 28C32.7 25.6804 30.8196 23.8 28.5 23.8C26.1804 23.8 24.3 25.6804 24.3 28C24.3 30.3196 26.1804 32.2 28.5 32.2Z" fill="#D6A652"/>
<path fill-rule="evenodd" clip-rule="evenodd" d="M14.5 27.44C14.5 22.7356 14.5 20.3833 15.4155 18.5865C16.2209 17.0059 17.5059 15.7209 19.0865 14.9155C20.8833 14 23.2356 14 27.94 14H29.06C33.7644 14 36.1167 14 37.9135 14.9155C39.4941 15.7209 40.7791 17.0059 41.5845 18.5865C42.5 20.3833 42.5 22.7356 42.5 27.44V28.56C42.5 33.2644 42.5 35.6167 41.5845 37.4135C40.7791 38.9941 39.4941 40.2791 37.9135 41.0845C36.1167 42 33.7644 42 29.06 42H27.94C23.2356 42 20.8833 42 19.0865 41.0845C17.5059 40.2791 16.2209 38.9941 15.4155 37.4135C14.5 35.6167 14.5 33.2644 14.5 28.56V27.44ZM27.94 16.8H29.06C31.4584 16.8 33.0888 16.8022 34.3491 16.9051C35.5767 17.0054 36.2044 17.1872 36.6423 17.4104C37.6961 17.9473 38.5527 18.8039 39.0896 19.8577C39.3128 20.2956 39.4946 20.9233 39.5949 22.1509C39.6978 23.4112 39.7 25.0416 39.7 27.44V28.56C39.7 30.9584 39.6978 32.5888 39.5949 33.8491C39.4946 35.0767 39.3128 35.7044 39.0896 36.1423C38.5527 37.1961 37.6961 38.0527 36.6423 38.5896C36.2044 38.8128 35.5767 38.9946 34.3491 39.0949C33.0888 39.1978 31.4584 39.2 29.06 39.2H27.94C25.5416 39.2 23.9112 39.1978 22.6509 39.0949C21.4233 38.9946 20.7956 38.8128 20.3577 38.5896C19.3039 38.0527 18.4473 37.1961 17.9104 36.1423C17.6872 35.7044 17.5054 35.0767 17.4051 33.8491C17.3022 32.5888 17.3 30.9584 17.3 28.56V27.44C17.3 25.0416 17.3022 23.4112 17.4051 22.1509C17.5054 20.9233 17.6872 20.2956 17.9104 19.8577C18.4473 18.8039 19.3039 17.9473 20.3577 17.4104C20.7956 17.1872 21.4233 17.0054 22.6509 16.9051C23.9112 16.8022 25.5416 16.8 27.94 16.8Z" fill="#D6A652"/>
</svg>
