<svg width="56" height="56" viewBox="0 0 56 56" fill="none" xmlns="http://www.w3.org/2000/svg">
<rect width="56" height="56" rx="28" fill="#0B0B0B"/>
<path d="M21.1146 16.312C20.4778 15.0329 19.5009 15.1461 18.514 15.1461C16.7502 15.1461 14 17.2588 14 21.1907C14 24.4131 15.4199 27.9405 20.2047 33.2171C24.8224 38.3095 30.8897 40.9438 35.9267 40.8541C40.9637 40.7645 42 36.43 42 34.9662C42 34.3174 41.5974 33.9936 41.32 33.9057C39.6035 33.0819 36.4378 31.547 35.7174 31.2586C34.9971 30.9702 34.621 31.3603 34.3872 31.5725C33.734 32.195 32.4391 34.0296 31.9957 34.4422C31.5524 34.8549 30.8914 34.646 30.6163 34.49C29.6041 34.0839 26.8597 32.8631 24.672 30.7425C21.9666 28.1198 21.8078 27.2175 21.2981 26.4143C20.8903 25.7717 21.1895 25.3775 21.3388 25.2052C21.9217 24.5326 22.7266 23.4942 23.0876 22.9782C23.4485 22.4621 23.162 21.6787 22.99 21.1907C22.2506 19.092 21.6241 17.3353 21.1146 16.312Z" fill="#D6A652"/>
</svg>
