<svg width="57" height="56" viewBox="0 0 57 56" fill="none" xmlns="http://www.w3.org/2000/svg">
<rect x="0.5" width="56" height="56" rx="28" fill="#0B0B0B"/>
<path d="M19.6925 32.4248C19.8748 30.9152 20.4939 30.0701 21.6606 29.2037C23.3299 28.0302 25.4151 28.694 25.4151 28.694V24.7563C25.9221 24.7434 26.4292 24.7734 26.9307 24.8461V29.9135C26.9307 29.9135 24.846 29.2498 23.1767 30.4238C22.0107 31.2896 21.3903 32.1354 21.2086 33.6449C21.2029 34.4646 21.3567 35.5361 22.0651 36.4626C21.89 36.3728 21.7114 36.2705 21.5295 36.1556C19.9691 35.1078 19.6849 33.5357 19.6925 32.4248ZM35.5407 17.4756C34.3923 16.2172 33.9581 14.9467 33.8011 14.0542H35.2457C35.2457 14.0542 34.9576 16.3944 37.0568 18.6957L37.0859 18.7266C36.5201 18.3708 36.0013 17.9507 35.5407 17.4756ZM42.4997 21.0431V26.0086C42.4997 26.0086 40.6563 25.9364 39.2921 25.5894C37.3872 25.104 36.1629 24.3595 36.1629 24.3595C36.1629 24.3595 35.3172 23.8286 35.2488 23.7916V34.0454C35.2488 34.6163 35.0925 36.0421 34.6158 37.2313C33.9935 38.787 33.0332 39.8081 32.8566 40.0168C32.8566 40.0168 31.6886 41.3971 29.628 42.3266C27.7707 43.1651 26.14 43.1439 25.6525 43.1651C25.6525 43.1651 22.8336 43.2768 20.297 41.6283C19.7485 41.2649 19.2365 40.8534 18.7676 40.3991L18.7802 40.4082C21.3175 42.0566 24.1358 41.945 24.1358 41.945C24.6238 41.9238 26.2546 41.945 28.1113 41.1065C30.1699 40.177 31.3398 38.7967 31.3398 38.7967C31.5145 38.588 32.4793 37.5668 33.099 36.0106C33.5744 34.822 33.7321 33.3956 33.7321 32.8246V22.5721C33.8004 22.6097 34.6455 23.1406 34.6455 23.1406C34.6455 23.1406 35.8705 23.8857 37.7753 24.3704C39.1401 24.7175 40.9829 24.7897 40.9829 24.7897V20.8987C41.6134 21.0401 42.1509 21.0783 42.4997 21.0431Z" fill="#9D7125"/>
<path d="M40.984 20.8987V24.7885C40.984 24.7885 39.1412 24.7163 37.7763 24.3692C35.8715 23.8838 34.6466 23.1394 34.6466 23.1394C34.6466 23.1394 33.8015 22.6085 33.7331 22.5709V32.8258C33.7331 33.3968 33.5767 34.8232 33.1001 36.0118C32.4778 37.5681 31.5175 38.5892 31.3408 38.7979C31.3408 38.7979 30.1722 40.1782 28.1123 41.1077C26.2556 41.9462 24.6249 41.925 24.1368 41.9462C24.1368 41.9462 21.3185 42.0579 18.7813 40.4094L18.7686 40.4003C18.5007 40.1409 18.2486 39.867 18.0134 39.58C17.2037 38.5928 16.7074 37.4255 16.5827 37.0924C16.5825 37.091 16.5825 37.0895 16.5827 37.0881C16.3821 36.5093 15.9604 35.1193 16.0181 33.773C16.12 31.3976 16.9556 29.9396 17.1765 29.5744C17.7616 28.5783 18.5227 27.6872 19.4257 26.9406C20.2226 26.2963 21.1259 25.7837 22.0984 25.4237C23.1498 25.0011 24.2756 24.7746 25.4156 24.7563V28.694C25.4156 28.694 23.3303 28.0327 21.6616 29.2037C20.4949 30.0701 19.8758 30.9153 19.6935 32.4248C19.6859 33.5357 19.9701 35.1078 21.5293 36.1562C21.7112 36.2715 21.8897 36.3738 22.0649 36.4632C22.3373 36.8173 22.6688 37.1258 23.0461 37.3763C24.5692 38.3404 25.8454 38.4078 27.4774 37.7816C28.5656 37.363 29.3847 36.4195 29.7646 35.3741C30.0032 34.7213 30.0001 34.0642 30.0001 33.3846V14.0542H33.7983C33.9553 14.9467 34.3896 16.2172 35.5379 17.4756C35.9986 17.9507 36.5174 18.3708 37.0832 18.7266C37.2503 18.8996 38.1049 19.7544 39.202 20.2793C39.7692 20.5505 40.3671 20.7584 40.984 20.8987Z" fill="#D6A652"/>
<path d="M15.0713 35.8818V35.8849L15.1655 36.1403C15.1547 36.1106 15.1197 36.0202 15.0713 35.8818Z" fill="#D6A652"/>
<path d="M22.0988 25.4233C21.1262 25.7832 20.2229 26.2958 19.4261 26.9401C18.5227 27.6884 17.7619 28.5814 17.1775 29.5794C16.9566 29.9434 16.1209 31.4026 16.019 33.7779C15.9614 35.1243 16.383 36.5143 16.5837 37.0931C16.5835 37.0945 16.5835 37.096 16.5837 37.0974C16.7103 37.4274 17.2047 38.5948 18.0144 39.585C18.2496 39.872 18.5017 40.1459 18.7696 40.4053C17.9113 39.8363 17.1459 39.1485 16.4982 38.3642C15.6955 37.3856 15.2005 36.2303 15.0714 35.8894C15.0712 35.8869 15.0712 35.8845 15.0714 35.8821V35.8778C14.8701 35.2996 14.4472 33.909 14.5061 32.5608C14.608 30.1855 15.4436 28.7275 15.6645 28.3623C16.2487 27.3642 17.0096 26.4712 17.9131 25.723C18.7098 25.0785 19.6131 24.5658 20.5858 24.2062C21.1925 23.9649 21.8245 23.7869 22.471 23.6753C23.4452 23.5123 24.4402 23.4981 25.4191 23.6334V24.7559C24.2781 24.7737 23.1511 25.0003 22.0988 25.4233Z" fill="#D6A652"/>
<path d="M33.8024 14.0538H30.0041V33.3848C30.0041 34.0643 30.0041 34.7196 29.7686 35.3743C29.385 36.4191 28.569 37.3625 27.4814 37.7812C25.8488 38.4097 24.5726 38.34 23.0502 37.3759C22.6722 37.1265 22.3398 36.819 22.0664 36.4658C23.3635 37.1289 24.5245 37.1174 25.9628 36.5641C27.0497 36.1454 27.867 35.202 28.2493 34.1566C28.4886 33.5037 28.4855 32.8466 28.4855 32.1677V12.833H33.7302C33.7302 12.833 33.6713 13.3135 33.8024 14.0538ZM40.9849 19.8225V20.8983C40.3691 20.7577 39.7723 20.5499 39.206 20.2788C38.109 19.754 37.2543 18.8991 37.0872 18.7262C37.2811 18.8482 37.4824 18.9592 37.6899 19.0587C39.0237 19.697 40.3373 19.8875 40.9849 19.8225Z" fill="#D6A652"/>
</svg>
