<svg width="57" height="56" viewBox="0 0 57 56" fill="none" xmlns="http://www.w3.org/2000/svg">
<rect x="0.5" width="56" height="56" rx="28" fill="#0B0B0B"/>
<path d="M23.2887 39.5C20.0537 39.5 17.0382 38.5591 14.5 36.9356C16.655 37.0751 20.4581 36.7411 22.8236 34.4848C19.2651 34.3215 17.6603 31.5923 17.4509 30.426C17.7533 30.5426 19.1953 30.6826 20.0093 30.356C15.9159 29.3296 15.2879 25.7373 15.4275 24.641C16.195 25.1775 17.4975 25.3641 18.0091 25.3174C14.1948 22.5882 15.567 18.4828 16.2415 17.5963C18.9788 21.3887 23.0812 23.5186 28.1564 23.637C28.0607 23.2174 28.0102 22.7804 28.0102 22.3316C28.0102 19.1109 30.6134 16.5 33.8247 16.5C35.5025 16.5 37.0144 17.2128 38.0757 18.3528C39.1969 18.0901 40.8843 17.4751 41.7092 16.9432C41.2934 18.4361 39.9989 19.6815 39.2159 20.1431C39.2095 20.1273 39.2224 20.1588 39.2159 20.1431C39.9037 20.039 41.7648 19.6814 42.5 19.1826C42.1364 20.0213 40.764 21.4157 39.6377 22.1964C39.8473 31.4381 32.7765 39.5 23.2887 39.5Z" fill="#D6A652"/>
</svg>
