<svg width="56" height="56" viewBox="0 0 56 56" fill="none" xmlns="http://www.w3.org/2000/svg">
<rect width="56" height="56" rx="28" fill="#0B0B0B"/>
<path fill-rule="evenodd" clip-rule="evenodd" d="M28 43C35.732 43 42 36.732 42 29C42 21.268 35.732 15 28 15C20.268 15 14 21.268 14 29C14 31.5109 14.661 33.8674 15.8185 35.905L14 43L21.3149 41.3038C23.3014 42.3854 25.5789 43 28 43ZM28 40.8462C34.5425 40.8462 39.8462 35.5425 39.8462 29C39.8462 22.4576 34.5425 17.1538 28 17.1538C21.4576 17.1538 16.1538 22.4576 16.1538 29C16.1538 31.5261 16.9445 33.8675 18.2918 35.7902L17.2308 39.7692L21.2799 38.7569C23.1894 40.0746 25.5046 40.8462 28 40.8462Z" fill="#D6A652"/>
<path d="M24.5 22.4999C24.1672 21.8313 23.6565 21.8905 23.1407 21.8905C22.2188 21.8905 20.7812 22.9948 20.7812 25.05C20.7813 26.7343 21.5234 28.578 24.0244 31.3361C26.438 33.9979 29.6094 35.3748 32.2422 35.3279C34.875 35.2811 35.4167 33.0154 35.4167 32.2503C35.4167 31.9112 35.2062 31.742 35.0613 31.696C34.1641 31.2654 32.5093 30.4631 32.1328 30.3124C31.7563 30.1617 31.5597 30.3656 31.4375 30.4765C31.0961 30.8018 30.4193 31.7608 30.1875 31.9765C29.9558 32.1922 29.6103 32.083 29.4665 32.0015C28.9374 31.7892 27.5029 31.1511 26.3595 30.0426C24.9453 28.6718 24.8623 28.2001 24.5959 27.7803C24.3828 27.4444 24.5392 27.2384 24.6172 27.1483C24.9219 26.7968 25.3426 26.254 25.5313 25.9843C25.7199 25.7145 25.5702 25.305 25.4803 25.05C25.0938 23.953 24.7663 23.0347 24.5 22.4999Z" fill="#D6A652"/>
</svg>
